# xmcd CD database file
#
# Track frame offsets:
#	150
#	57888
#	106510
#	149814
#	186462
#	236509
#
# Disc length: 3635 seconds
#
# Revision: 0
# Processed by: cddbd v1.5.1PL0 Copyright (c) Steve Scherf et al.
# Submitted via: CDex 1.51
#
DISCID=520e3106
DTITLE=Eric Alexander and Vincent Herring - The Battle Live At Smoke
DYEAR=2005
DGENRE=Jazz
TTITLE0=Blues Up And Down
TTITLE1=Road Song
TTITLE2=Firm Roots
TTITLE3=Ritual Dance
TTITLE4=Shirley's Song
TTITLE5=Eleven Years
EXTD=YEAR: 2005
EXTT0=
EXTT1=
EXTT2=
EXTT3=
EXTT4=
EXTT5=
PLAYORDER=
